<?xml version="1.0" encoding="utf-8"?>
<!-- Generator: Adobe Illustrator 27.9.0, SVG Export Plug-In . SVG Version: 6.00 Build 0)  -->
<svg version="1.1" id="Calque_1" xmlns="http://www.w3.org/2000/svg" xmlns:xlink="http://www.w3.org/1999/xlink" x="0px" y="0px"
	 viewBox="0 0 250 250" style="enable-background:new 0 0 250 250;" xml:space="preserve">
<style type="text/css">
	.st0{fill:#E52521;}
	.st1{fill-rule:evenodd;clip-rule:evenodd;fill:#FFFFFF;}
</style>
<path id="Fond_1" class="st0" d="M149.98,34.2c12.18,3.61,23.22,9.65,32.36,17.52c15.48,13.31,25.45,31.57,29.12,51.62
	c0.37,13.27,0.75,26.55,1.12,39.83v76.33c-21.13-3.28-40.62-15.64-60.37-19.91c-8.14,2.69-16.63,4.18-25.2,4.43
	c-18.87,0.54-39.44-4.89-56.33-18.06c-26.62-20.76-34.52-51.29-33.11-73.53c0.57-9.01,2.84-18.63,6.88-28.38
	c3.57-8.61,7.67-15.44,12.18-21.08c6.02-7.55,14.19-14.82,25.23-21.05c5.89-3.33,11.94-5.9,18.06-7.74
	c4.64-1.4,9.38-2.41,14.19-3.01C126.06,29.66,138.37,30.76,149.98,34.2z"/>
<path id="Fond_2" class="st1" d="M185.41,175c-4.62-0.39-9.03-1.9-12.86-4.47c-2.47-1.66-6.04-5.06-8.94-10.06
	c-2.38-4.1-3.89-8.65-4.47-13.42c0.02-3.18,0.02-6.32,0-9.5c-0.03-4.54-0.22-9.05-0.17-13.36c0.04-3.03,0.1-5.53-0.19-8.51
	c-0.31-3.2-0.88-6.36-1.72-9.46c-1.33-4.91-3.83-9.42-7.28-13.15c-4.15-4.47-9.68-7.67-15.94-9.21c-5.85-1.43-11.99-1.23-17.74,0.58
	c-4.1,1.29-7.9,3.38-11.18,6.15c-3.95,3.35-7.04,7.57-8.94,12.3c-1.62,4.01-2.51,8.7-2.24,13.97c0.25,4.67,1.46,9.25,3.55,13.44
	c3.2,6.46,7.17,10.39,10.99,12.83c6.44,4.13,14.57,5.26,22.92,3.91c4.74-0.77,9.27-2.48,13.42-5.03c1.12,1.49,2.24,2.98,3.35,4.47
	c1.38,1.81,2.69,3.61,3.98,5.48c1.08,1.57,2.11,3.11,3.07,4.64c1.32,2.09,2.55,4.18,3.76,6.37c-6.23,3.98-12.84,7.08-19.76,9.22
	c-4.91,1.52-9.26,2.41-13.35,2.82c-6.94,0.68-12.66,0.24-17.63-0.86c-4.81-1.06-9.44-2.79-13.76-5.16
	c-5.92-3.26-12.04-8.23-17.63-15.91c-3.5-4.8-6.43-10.39-8.6-16.77c-2.55-7.49-3.52-14.37-3.44-20.64
	c0.08-6.08,1.19-12.8,3.87-20.21c1.86-5.14,4.01-9.32,6.45-12.9c1.56-2.28,3.28-4.43,5.16-6.45c2.67-2.87,6.38-5.98,10.75-9.03
	c3.65-2.54,7.13-4.57,10.32-6.02c4.54-2.06,9.16-3.49,13.76-4.3c3.36-0.59,7.05-0.88,11.24-0.84c8.62,0.08,15.7,1.5,21,3.42
	c4.33,1.57,9.59,4.34,15.05,8.17c4.75,3.33,8.66,6.88,11.18,9.89c2.5,2.98,4.49,5.99,6.02,9.03c3.5,6.96,4.46,14.22,4.73,18.06
	c0.59,8.37,0.95,19.05,0.71,22.98C184.09,140.03,184.63,159.24,185.41,175z"/>
</svg>
